<svg width="15" height="15" viewBox="0 0 15 15" fill="none" xmlns="http://www.w3.org/2000/svg">
<g clip-path="url(#clip0_366_496)">
<path d="M5.87741 10.9722H9.1225M7.49993 1.25V2.5M11.9194 3.08058L10.9375 4.06246M13.75 7.49993H12.5M2.5 7.49993H1.25M4.06247 4.0625L3.08055 3.08058M5.04473 9.95528C3.68874 8.59924 3.68874 6.40076 5.04473 5.04478C6.40069 3.6888 8.59924 3.6888 9.95521 5.04478C11.3112 6.40076 11.3112 8.59924 9.95521 9.95528L9.57528 10.3352C9.13576 10.7747 8.88882 11.3708 8.88882 11.9924V12.3611C8.88882 13.1282 8.26701 13.75 7.49993 13.75C6.73292 13.75 6.11108 13.1282 6.11108 12.3611V11.9924C6.11108 11.3708 5.86417 10.7747 5.42466 10.3352L5.04473 9.95528Z" stroke="#089D93" stroke-width="1.5" stroke-linecap="round"/>
</g>
<defs>
<clipPath id="clip0_366_496">
<rect width="15" height="15" fill="white"/>
</clipPath>
</defs>
</svg>
