<svg width="15" height="15" viewBox="0 0 15 15" fill="none" xmlns="http://www.w3.org/2000/svg">
<path d="M1.25 5.625V9.875C1.25 10.5751 1.25 10.9251 1.38624 11.1925C1.50608 11.4277 1.69731 11.6189 1.93251 11.7388C2.1999 11.875 2.54993 11.875 3.25 11.875H11.75C12.4501 11.875 12.8001 11.875 13.0675 11.7388C13.3027 11.6189 13.4939 11.4277 13.6138 11.1925C13.75 10.9251 13.75 10.5751 13.75 9.875V5.625M1.25 5.625V5.125C1.25 4.42493 1.25 4.0749 1.38624 3.80751C1.50608 3.57231 1.69731 3.38108 1.93251 3.26124C2.1999 3.125 2.54993 3.125 3.25 3.125H11.75C12.4501 3.125 12.8001 3.125 13.0675 3.26124C13.3027 3.38108 13.4939 3.57231 13.6138 3.80751C13.75 4.0749 13.75 4.42493 13.75 5.125V5.625M1.25 5.625H13.75M3.75 8.75H6.875" stroke="#089D93" stroke-width="1.5" stroke-linecap="round" stroke-linejoin="round"/>
</svg>
